# xmcd
#
# Track frame offsets:
#	150
#	14349
#	28398
#	41530
#	54101
#	67983
#	82184
#	93503
#	105398
#	118937
#	135572
#	148666
#	164217
#	175697
#	186335
#	196894
#	207532
#	220960
#	233467
#	247059
#
# Disc length: 3465 seconds
#
# Revision: 1
# Processed by: cddbd v1.5.2PL0 Copyright (c) Steve Scherf et al.
# Submitted via: audiograbber 1.83.01
#
DISCID=270d8714
DTITLE=Nat King Cole - Feel the groove - Side B
DYEAR=1900
DGENRE=Blues
TTITLE0=Are you fer it?
TTITLE1=I just can't see for looking
TTITLE2=It's only a paper moon
TTITLE3=After you get what you want, you don't want it
TTITLE4=Come to baby, do
TTITLE5=I'd love to make love to you
TTITLE6=I know that you know
TTITLE7=Everyone is sayin' hello again
TTITLE8=Could - 'Ja
TTITLE9=Route 66
TTITLE10=Jam - Bo
TTITLE11=Mona Lisa
TTITLE12=Orange colored sky
TTITLE13=Paint yourself a rainbow
TTITLE14=Get to gettin'
TTITLE15=It's crazy
TTITLE16=Funny (not much)
TTITLE17=Pretend
TTITLE18=Forgive my heart
TTITLE19=Darling, Je vous aime beaucoup
EXTD=
EXTT0=
EXTT1=
EXTT2=
EXTT3=
EXTT4=
EXTT5=
EXTT6=
EXTT7=
EXTT8=
EXTT9=
EXTT10=
EXTT11=
EXTT12=
EXTT13=
EXTT14=
EXTT15=
EXTT16=
EXTT17=
EXTT18=
EXTT19=
PLAYORDER=
